<svg width="61" height="61" viewBox="0 0 61 61" fill="none" xmlns="http://www.w3.org/2000/svg">
<path d="M8.96983 47.0795C13.0098 43.0395 13.3998 42.0795 15.8798 44.5595C18.3598 47.0395 17.3998 47.4295 13.3598 51.4695C10.3498 54.4795 6.52983 53.9094 6.52983 53.9094C6.52983 53.9094 5.95983 50.0895 8.96983 47.0795Z" fill="#FF9D27"/>
<path d="M16.6497 51.2201C18.2197 47.0001 18.7397 46.4401 16.4497 45.1801C14.1597 43.9201 14.1697 44.7701 12.5997 48.9901C11.4297 52.1301 12.8297 54.9501 12.8297 54.9501C12.8297 54.9501 15.4797 54.3701 16.6497 51.2301V51.2201Z" fill="#FF9D27"/>
<path d="M14.3102 47.2893C15.1802 44.9493 15.1802 44.4793 16.4402 45.1793C17.7102 45.8793 17.4202 46.1894 16.5502 48.5294C15.9002 50.2694 14.4302 50.5993 14.4302 50.5993C14.4302 50.5993 13.6602 49.0393 14.3002 47.2993L14.3102 47.2893Z" fill="#FDF516"/>
<path d="M15.2498 43.98C13.9898 41.69 13.4297 42.22 9.20975 43.78C6.06975 44.95 5.48975 47.6 5.48975 47.6C5.48975 47.6 8.29977 48.99 11.4498 47.83C15.6698 46.26 16.5198 46.27 15.2598 43.98H15.2498Z" fill="#FF9D27"/>
<path d="M13.1401 46.11C15.4801 45.24 15.9501 45.24 15.2501 43.98C14.5501 42.71 14.2401 43 11.9001 43.87C10.1601 44.52 9.83008 45.99 9.83008 45.99C9.83008 45.99 11.3901 46.76 13.1401 46.12V46.11Z" fill="#FDF516"/>
<path d="M12.0402 45.9494C14.2802 43.7094 14.5002 43.1694 15.8702 44.5494C17.2502 45.9294 16.7202 46.1394 14.4702 48.3794C12.8002 50.0494 10.6801 49.7394 10.6801 49.7394C10.6801 49.7394 10.3702 47.6194 12.0302 45.9494H12.0402Z" fill="#FDF516"/>
<path d="M16.6497 36.2998C10.3497 25.8098 0.00976562 30.1398 0.00976562 30.1398C0.00976562 30.1398 14.8298 15.3198 24.7798 25.2698L16.6497 36.2998Z" fill="#3BAACF"/>
<path d="M21.51 28.5298L24.77 25.2698C14.82 15.3198 0 30.1398 0 30.1398C0 30.1398 13 20.8098 21.51 28.5398V28.5298Z" fill="#428BC1"/>
<path d="M24.1602 43.7999C34.6502 50.0999 30.3202 60.4399 30.3202 60.4399C30.3202 60.4399 45.1402 45.6199 35.1902 35.6699L24.1602 43.7999Z" fill="#3BAACF"/>
<path d="M31.9201 38.9397L35.1801 35.6797C45.1301 45.6297 30.3101 60.4497 30.3101 60.4497C30.3101 60.4497 39.6401 47.4497 31.9101 38.9497L31.9201 38.9397Z" fill="#428BC1"/>
<path d="M47.1197 29.0899C35.3997 40.8099 22.3397 47.1099 17.8297 42.5899C13.3197 38.0798 19.6197 25.0198 31.3297 13.2998C44.9897 -0.360156 60.2497 0.159829 60.2497 0.159829C60.2497 0.159829 60.7697 15.4198 47.1097 29.0798L47.1197 29.0899Z" fill="#C5D0D8"/>
<path d="M44.1698 25.77C32.4498 37.48 20.7398 45.13 18.0398 42.42C15.3298 39.71 22.9798 28 34.6998 16.29C48.3598 2.62998 60.4698 0 60.4698 0C60.4698 0 57.8398 12.11 44.1798 25.77H44.1698Z" fill="#DAE3EA"/>
<path d="M22.49 45.7796C21.99 46.2896 21.21 46.3296 20.71 45.8196L14.69 39.7996C14.19 39.2996 14.15 38.4396 14.65 37.9296L16.47 36.0996L24.32 43.9496L22.5 45.7696L22.49 45.7796Z" fill="#C94747"/>
<path d="M20.7698 44.0701C20.2698 44.5701 19.6499 44.7801 19.3699 44.4901L15.9898 41.1101C15.7098 40.8301 15.8599 40.1701 16.3699 39.6601L18.1899 37.8301L22.5999 42.2401L20.7698 44.0701Z" fill="#F15744"/>
<path d="M19.0198 46.5197C18.6898 46.8397 18.0598 46.8397 17.7398 46.5097L13.8198 42.5997C13.4898 42.2697 13.5798 41.7397 13.9098 41.4097L15.0898 40.2197L20.1998 45.3297L19.0098 46.5197H19.0198Z" fill="#3E4347"/>
<path d="M18.2499 45.7402C17.9199 46.0702 17.3899 46.1602 17.1599 45.9302L14.4299 43.2002C14.1999 42.9702 14.3599 42.5102 14.6799 42.1802L15.8699 40.9902L19.4299 44.5502L18.2399 45.7402H18.2499Z" fill="#62727A"/>
<path d="M60.2599 0.170117C60.2599 0.170117 54.7799 -0.0298769 47.4399 2.77012L57.6599 12.9901C60.4599 5.65012 60.2599 0.170117 60.2599 0.170117Z" fill="#C94747"/>
<path d="M60.2599 0.170166C60.2599 0.170166 55.8799 1.08018 49.4199 4.75018L55.6699 11.0002C59.3499 4.54018 60.2499 0.160156 60.2499 0.160156L60.2599 0.170166Z" fill="#F15744"/>
<path d="M41.79 23.6796C44.5735 23.6796 46.83 21.4231 46.83 18.6396C46.83 15.8561 44.5735 13.5996 41.79 13.5996C39.0065 13.5996 36.75 15.8561 36.75 18.6396C36.75 21.4231 39.0065 23.6796 41.79 23.6796Z" fill="#EDF4F9"/>
<path d="M41.7902 22.0003C43.6459 22.0003 45.1502 20.4959 45.1502 18.6403C45.1502 16.7846 43.6459 15.2803 41.7902 15.2803C39.9345 15.2803 38.4302 16.7846 38.4302 18.6403C38.4302 20.4959 39.9345 22.0003 41.7902 22.0003Z" fill="#3BAACF"/>
<path d="M31.7202 33.7499C34.5037 33.7499 36.7602 31.4934 36.7602 28.7099C36.7602 25.9264 34.5037 23.6699 31.7202 23.6699C28.9367 23.6699 26.6802 25.9264 26.6802 28.7099C26.6802 31.4934 28.9367 33.7499 31.7202 33.7499Z" fill="#EDF4F9"/>
<path d="M31.7198 25.3594C33.5698 25.3594 35.0799 26.8594 35.0799 28.7194C35.0799 30.5794 33.5798 32.0794 31.7198 32.0794C29.8598 32.0794 28.3599 30.5794 28.3599 28.7194C28.3599 26.8594 29.8598 25.3594 31.7198 25.3594Z" fill="#3BAACF"/>
<path d="M47.21 4.91013C46.89 5.24013 46.35 5.24013 46.02 4.91013C45.69 4.58013 45.69 4.05016 46.02 3.72016C46.35 3.39016 46.88 3.39016 47.21 3.72016C47.54 4.05016 47.54 4.58013 47.21 4.91013Z" fill="black"/>
<path d="M48.9899 5.84961C49.4499 5.84961 49.8299 6.22964 49.8299 6.68964C49.8299 7.14964 49.4499 7.52963 48.9899 7.52963C48.5299 7.52963 48.1499 7.14964 48.1499 6.68964C48.1499 6.22964 48.5299 5.84961 48.9899 5.84961Z" fill="black"/>
<path d="M51.3698 8.21973C51.8298 8.21973 52.2098 8.59972 52.2098 9.05972C52.2098 9.51972 51.8298 9.89972 51.3698 9.89972C50.9098 9.89972 50.5298 9.51972 50.5298 9.05972C50.5298 8.59972 50.9098 8.21973 51.3698 8.21973Z" fill="black"/>
<path d="M53.7399 10.5996C54.1999 10.5996 54.5799 10.9796 54.5799 11.4396C54.5799 11.8996 54.1999 12.2796 53.7399 12.2796C53.2799 12.2796 52.8999 11.8996 52.8999 11.4396C52.8999 10.9796 53.2799 10.5996 53.7399 10.5996Z" fill="black"/>
<path d="M56.1198 12.9697C56.5798 12.9697 56.9598 13.3497 56.9598 13.8097C56.9598 14.2697 56.5798 14.6497 56.1198 14.6497C55.6598 14.6497 55.2798 14.2697 55.2798 13.8097C55.2798 13.3497 55.6598 12.9697 56.1198 12.9697Z" fill="black"/>
</svg>
