<svg width="75" height="39" viewBox="0 0 75 39" fill="none" xmlns="http://www.w3.org/2000/svg">
<path d="M56.7877 0.0263672H18.3708C8.31248 0.0263672 0.158691 8.18022 0.158691 18.2385V20.7619C0.158691 30.8202 8.31248 38.9741 18.3708 38.9741H56.7877C66.846 38.9741 74.9999 30.8202 74.9999 20.7619V18.2385C74.9999 8.18022 66.846 0.0263672 56.7877 0.0263672Z" fill="black" fill-opacity="0.05"/>
<path d="M20.4883 32.5885C27.7833 32.5885 33.6971 26.6747 33.6971 19.3797C33.6971 12.0847 27.7833 6.1709 20.4883 6.1709C13.1933 6.1709 7.27954 12.0847 7.27954 19.3797C7.27954 26.6747 13.1933 32.5885 20.4883 32.5885Z" fill="#1A1A1A"/>
<path d="M62.162 22.1508C62.332 21.7458 61.8462 21.4008 61.4387 21.5808C60.6242 21.9383 59.7441 22.1222 58.8545 22.1208C55.367 22.1208 52.5404 19.3508 52.5404 15.9333C52.5391 14.7794 52.8669 13.6491 53.4854 12.6749C53.722 12.3016 53.4379 11.7849 53.0045 11.8949C49.6637 12.7474 47.197 15.7241 47.197 19.2649C47.197 23.4708 50.6762 26.8799 54.9687 26.8799C58.2187 26.8799 61.002 24.9258 62.162 22.1508Z" fill="black"/>
<path d="M57.7062 11.9655C57.2645 11.6705 56.7379 12.1972 57.032 12.6389L57.557 13.4264C57.77 13.7457 57.8837 14.1209 57.8837 14.5047C57.8837 14.8885 57.77 15.2637 57.557 15.583L57.032 16.3705C56.7379 16.8122 57.2654 17.3389 57.707 17.0439L58.4937 16.5189C58.813 16.3059 59.1882 16.1923 59.572 16.1923C59.9558 16.1923 60.3311 16.3059 60.6504 16.5189L61.4379 17.0439C61.8795 17.3389 62.4062 16.8122 62.1112 16.3705L61.5862 15.583C61.3732 15.2637 61.2596 14.8885 61.2596 14.5047C61.2596 14.1209 61.3732 13.7457 61.5862 13.4264L62.1112 12.6389C62.4062 12.1972 61.8795 11.6705 61.437 11.9655L60.6504 12.4905C60.3311 12.7035 59.9558 12.8172 59.572 12.8172C59.1882 12.8172 58.813 12.7035 58.4937 12.4905L57.7062 11.9655Z" fill="black"/>
</svg>
