<svg width="34" height="53" viewBox="0 0 34 53" fill="none" xmlns="http://www.w3.org/2000/svg">
<path d="M20.1485 0.170898C20.1485 0.249196 20.1537 0.322274 20.1537 0.400572C20.1537 2.92174 20.1537 5.44813 20.1537 7.9693C20.1537 8.18157 20.051 8.28771 19.8457 8.28771C18.1493 8.28771 16.4581 8.28771 14.7616 8.28771C13.2374 8.28771 11.8594 8.7314 10.6641 9.6814C9.23385 10.8141 8.4039 12.2913 8.18466 14.113C8.14812 14.4053 8.14813 14.6976 8.14813 14.99C8.14813 16.2584 8.14813 17.5268 8.14813 18.7952C8.14813 19.051 8.14813 19.051 8.4039 19.051C11.4001 19.051 14.3962 19.0353 17.3872 19.0562C20.2059 19.0771 22.8158 19.8653 25.2013 21.3581C27.3988 22.7309 29.137 24.5579 30.4106 26.818C31.4024 28.5823 32.0183 30.4719 32.248 32.4868C32.3263 33.1862 32.3576 33.8805 32.3576 34.5851C32.3576 36.2868 32.3576 37.9885 32.3576 39.6901C32.3576 39.8885 32.2619 39.9876 32.0705 39.9876C29.5389 39.9876 27.0125 39.9876 24.4809 39.9876C24.2095 39.9876 24.2043 39.9876 24.2043 39.711C24.2043 37.7953 24.2304 35.8744 24.1938 33.9587C24.1625 32.231 23.5048 30.7329 22.3408 29.4645C21.1455 28.17 19.6526 27.4288 17.8987 27.2252C17.6377 27.1939 17.3768 27.1834 17.1158 27.1834C14.2188 27.1834 11.3166 27.1834 8.41956 27.1834C8.23861 27.1834 8.14813 27.2757 8.14813 27.4601C8.14813 31.4898 8.14813 35.5143 8.14813 39.544C8.14813 39.6066 8.14813 39.6692 8.14813 39.7371C8.14813 39.9929 8.14813 39.9981 7.89235 39.9981C7.56351 39.9981 7.22944 39.9981 6.90059 39.9981C4.69783 39.9981 2.48985 39.9981 0.287091 39.9981C0.193135 39.9981 0.0939566 39.9929 0 39.9876C0 31.3854 0 22.7831 0 14.1757C0.0365387 13.8259 0.0626362 13.4814 0.104395 13.1317C0.287088 11.5292 0.725555 9.99981 1.41979 8.5487C2.43765 6.41901 3.88354 4.63384 5.75745 3.19839C7.69922 1.71075 9.88111 0.765957 12.2927 0.358812C12.7572 0.280515 13.227 0.243976 13.6916 0.181338C15.8474 0.181338 17.9979 0.181338 20.1537 0.181338L20.1485 0.170898Z" fill="black"/>
<path d="M33.1151 12.823C32.7183 12.823 32.3269 12.8334 31.9302 12.8334C30.9436 12.8334 29.9571 12.8386 28.9705 12.8334C26.6999 12.8178 24.7686 11.0796 24.4971 8.82983C24.4763 8.65236 24.4658 8.47489 24.4658 8.29741C24.4658 7.01856 24.4658 5.73449 24.4658 4.45563C24.4658 4.2625 24.518 4.20508 24.7164 4.20508C25.9952 4.2103 27.2793 4.20508 28.5582 4.20508C30.6617 4.20508 32.4835 5.64575 32.9846 7.69191C33.0681 8.03642 33.0837 8.38093 33.1255 8.73066V12.823H33.1151Z" fill="black"/>
<path d="M8.37226 52.8188C8.13737 52.7718 7.89726 52.7457 7.66759 52.6622C6.99423 52.4168 6.61319 51.8688 6.60797 51.1171C6.60275 50.3498 6.95247 49.8278 7.62583 49.5512C8.18435 49.3267 8.77941 49.3006 9.36403 49.2171C9.58326 49.1858 9.80249 49.1492 10.0217 49.0918C10.2253 49.0396 10.3819 48.9196 10.3975 48.6847C10.4184 48.4132 10.4184 48.1262 10.1261 47.9852C9.70853 47.7816 9.27529 47.7869 8.84726 47.9487C8.60715 48.0426 8.47144 48.2567 8.42968 48.5072C8.40358 48.6481 8.34616 48.7003 8.20523 48.7003C7.8033 48.6951 7.40138 48.6951 6.99945 48.7003C6.81676 48.7003 6.78544 48.6273 6.81154 48.4654C6.92638 47.719 7.35962 47.244 8.04863 46.9987C9.07172 46.6333 10.1 46.6333 11.1127 47.0143C11.7077 47.2388 12.0157 47.6981 12.0157 48.3454C12.0157 49.2954 12.0157 50.2454 12.0157 51.1954C12.0157 51.6495 12.0157 52.0984 12.1671 52.5369C12.2036 52.6361 12.1514 52.6674 12.0679 52.6674C11.6138 52.6674 11.1649 52.6674 10.7107 52.6674C10.6324 52.6674 10.5802 52.6256 10.5594 52.5473C10.5489 52.5004 10.5333 52.4482 10.5228 52.4012C10.4654 52.1611 10.4706 52.1663 10.2671 52.3177C9.89645 52.5995 9.46843 52.7353 9.0143 52.7927C8.95166 52.7979 8.88381 52.7927 8.82639 52.824H8.36704L8.37226 52.8188ZM10.4028 50.4385C10.4028 50.2924 10.4028 50.1828 10.4028 50.0784C10.4028 49.9479 10.3506 49.927 10.2357 49.9688C10.0165 50.0523 9.78161 50.0888 9.54672 50.1253C9.21265 50.1775 8.87858 50.2193 8.57061 50.3759C8.25743 50.5377 8.20001 50.8091 8.2261 51.1171C8.2522 51.399 8.41402 51.5712 8.67501 51.6495C8.96732 51.7383 9.26485 51.7278 9.56238 51.6756C9.99563 51.5921 10.2514 51.3207 10.3558 50.8979C10.3975 50.7361 10.3923 50.569 10.3975 50.4438L10.4028 50.4385Z" fill="black"/>
<path d="M15.3724 52.8191C15.0696 52.7721 14.7669 52.7512 14.4693 52.6677C13.5976 52.4276 13.0496 51.8117 12.9399 50.9608C12.9191 50.8095 12.9556 50.7468 13.1122 50.752C13.4985 50.752 13.8899 50.752 14.2762 50.752C14.3597 50.752 14.4485 50.752 14.4589 50.8721C14.5111 51.368 14.8452 51.5872 15.2784 51.6759C15.6229 51.749 15.9726 51.7386 16.3015 51.5663C16.5312 51.4463 16.646 51.2636 16.6512 51.0182C16.6512 50.7677 16.4842 50.6268 16.2754 50.5328C15.8422 50.3397 15.3776 50.2509 14.9182 50.1518C14.5581 50.0735 14.1979 49.9795 13.8691 49.8125C13.2114 49.4836 12.9608 48.9825 13.0809 48.2622C13.1853 47.6358 13.5298 47.1973 14.1301 46.9886C15.1479 46.6336 16.1658 46.6232 17.1575 47.0929C17.7004 47.3539 17.9823 47.8081 18.0867 48.3927C18.1128 48.5441 18.071 48.6224 17.904 48.6171C17.5229 48.6119 17.1419 48.6171 16.7556 48.6171C16.646 48.6171 16.5729 48.5806 16.5521 48.4658C16.4946 48.1317 16.2702 47.9594 15.9622 47.8916C15.6542 47.8237 15.3411 47.8185 15.0331 47.902C14.7982 47.9647 14.6938 48.1004 14.6781 48.2987C14.6573 48.5232 14.7512 48.6746 14.9548 48.7737C15.3567 48.9773 15.8056 49.0399 16.2389 49.1391C16.7347 49.2487 17.215 49.3844 17.6534 49.6507C18.1337 49.9377 18.2798 50.3762 18.2589 50.9034C18.2224 51.9735 17.5751 52.4694 16.5625 52.7199C16.3485 52.7721 16.124 52.793 15.9048 52.8295H15.3672L15.3724 52.8191Z" fill="black"/>
<path d="M1.91565 47.5978C2.2706 47.1959 2.66731 46.9088 3.17363 46.7992C3.72693 46.6791 4.26457 46.7522 4.78133 46.9766C5.12062 47.1228 5.32419 47.4099 5.47035 47.7387C5.63216 48.1198 5.70002 48.5217 5.70524 48.9288C5.71046 50.1033 5.70524 51.2725 5.71046 52.447C5.71046 52.614 5.65826 52.6767 5.49123 52.6715C5.09452 52.6662 4.70304 52.661 4.30633 52.6715C4.13408 52.6715 4.0871 52.6036 4.09232 52.4418C4.09232 51.3769 4.09232 50.3121 4.09232 49.2473C4.09232 49.0541 4.061 48.8662 4.01402 48.6835C3.88353 48.1668 3.52336 48.0102 3.05358 48.0258C2.21841 48.0571 1.95741 48.5635 1.93653 49.3517C1.90522 50.3486 1.9261 51.3508 1.9261 52.353C1.9261 52.5618 1.81996 52.6662 1.60769 52.6662C1.2423 52.6662 0.882132 52.6662 0.516745 52.6662C0.36537 52.6662 0.302734 52.614 0.302734 52.4574C0.302734 49.9467 0.302734 47.436 0.302734 44.9253C0.302734 44.7687 0.354933 44.706 0.511528 44.7112C0.908233 44.7165 1.29972 44.7217 1.69642 44.7112C1.8739 44.7112 1.9261 44.7739 1.9261 44.9461C1.92088 45.7604 1.9261 46.5799 1.9261 47.3942C1.9261 47.4621 1.9261 47.5299 1.9261 47.5978H1.91565Z" fill="black"/>
<path d="M20.801 47.6184C21.0098 47.3156 21.2812 47.086 21.6101 46.9398C22.3095 46.6266 23.009 46.684 23.6771 47.0129C24.1939 47.2686 24.3661 47.775 24.4705 48.297C24.528 48.5945 24.5488 48.9025 24.5488 49.2104C24.5488 50.2753 24.5488 51.3401 24.5488 52.4049C24.5488 52.6607 24.5332 52.6712 24.2774 52.6712C23.9016 52.6712 23.5258 52.6712 23.1499 52.6712C22.9829 52.6712 22.9307 52.6137 22.9307 52.4467C22.9359 51.4393 22.9307 50.4319 22.9307 49.4244C22.9307 49.1739 22.915 48.9286 22.8472 48.6884C22.701 48.1612 22.3774 48.0046 21.8711 48.0255C21.1038 48.0568 20.801 48.5005 20.7749 49.2731C20.7384 50.2492 20.7645 51.22 20.7593 52.1961C20.7593 52.2744 20.754 52.3475 20.7593 52.4258C20.7749 52.6085 20.6966 52.6712 20.5139 52.6712C20.1277 52.6607 19.7362 52.6659 19.3499 52.6712C19.1933 52.6712 19.1411 52.619 19.1411 52.4571C19.1411 49.9464 19.1411 47.4357 19.1411 44.925C19.1411 44.7684 19.1933 44.7109 19.3499 44.7109C19.731 44.7162 20.112 44.7109 20.4983 44.7109C20.7436 44.7109 20.7593 44.7266 20.7593 44.9667C20.7593 45.7758 20.7593 46.5849 20.7593 47.3939C20.7593 47.4618 20.7384 47.5349 20.7958 47.6132L20.801 47.6184Z" fill="black"/>
<path d="M30.5882 49.597C30.5882 50.0407 30.5829 50.4896 30.5882 50.9333C30.5986 51.3091 30.7291 51.4292 31.1101 51.4344C31.2667 51.4344 31.4286 51.4344 31.5851 51.4239C31.6895 51.4135 31.7261 51.45 31.7313 51.544C31.7313 51.8676 31.7313 52.1965 31.7313 52.5201C31.7313 52.6193 31.6895 52.6715 31.5851 52.6819C31.0057 52.7289 30.4263 52.7706 29.8574 52.6088C29.2571 52.4418 28.97 52.0608 28.97 51.4344C28.97 50.3695 28.9648 49.3047 28.97 48.2399C28.97 48.0467 28.9126 47.9736 28.7195 47.9893C28.5472 48.005 28.375 47.9893 28.2027 47.9893C28.067 47.9893 28.0044 47.9371 28.0096 47.7962C28.0148 47.5561 28.0148 47.3107 28.0096 47.0706C28.0096 46.9245 28.0774 46.8827 28.2079 46.8827C28.4011 46.8827 28.589 46.8827 28.7821 46.8827C28.923 46.8827 28.97 46.8305 28.97 46.6896C28.9648 46.2563 28.97 45.8231 28.97 45.3898C28.97 45.228 29.017 45.1602 29.184 45.1602C29.5807 45.1654 29.9722 45.1654 30.3689 45.1602C30.5412 45.1602 30.5882 45.228 30.5882 45.3898C30.5829 45.8126 30.5882 46.2302 30.5882 46.653C30.5882 46.8305 30.6508 46.8931 30.8231 46.8827C31.0632 46.8723 31.3085 46.8827 31.5486 46.8827C31.6843 46.8827 31.7417 46.9401 31.7417 47.0758C31.7417 47.3159 31.7417 47.5613 31.7417 47.8014C31.7417 47.9319 31.6843 47.9841 31.5591 47.9841C31.3085 47.9841 31.0632 47.9893 30.8126 47.9841C30.6456 47.9789 30.5882 48.0415 30.5882 48.2085C30.5934 48.6679 30.5882 49.1272 30.5882 49.5866V49.597Z" fill="black"/>
<path d="M27.3467 49.7919C27.3467 50.6688 27.3467 51.5509 27.3467 52.4279C27.3467 52.6106 27.2892 52.6732 27.1065 52.668C26.7203 52.6575 26.3288 52.6628 25.9425 52.668C25.7859 52.668 25.7285 52.6106 25.7285 52.454C25.7285 50.6688 25.7285 48.8888 25.7285 47.1037C25.7285 46.9471 25.7912 46.8896 25.9425 46.8896C26.3392 46.8949 26.7307 46.8949 27.1274 46.8896C27.2945 46.8896 27.3467 46.9523 27.3467 47.1141C27.3414 48.0067 27.3467 48.8993 27.3467 49.7919Z" fill="black"/>
<path d="M26.5532 46.0577C26.3445 46.0577 26.1304 46.0577 25.9217 46.0577C25.7964 46.0577 25.7285 46.0211 25.7285 45.8854C25.7285 45.5565 25.7285 45.2225 25.7285 44.8936C25.7285 44.7631 25.7912 44.7109 25.9164 44.7109C26.3392 44.7109 26.7568 44.7109 27.1796 44.7109C27.2997 44.7109 27.3519 44.7631 27.3467 44.8832C27.3467 45.212 27.3467 45.5461 27.3467 45.875C27.3467 46.0107 27.2892 46.0577 27.164 46.0524C26.9604 46.0524 26.7568 46.0524 26.5532 46.0524V46.0577Z" fill="black"/>
</svg>
